<mxfile host="Electron" agent="Mozilla/5.0 (X11; Linux x86_64) AppleWebKit/537.36 (KHTML, like Gecko) draw.io/24.7.17 Chrome/128.0.6613.186 Electron/32.2.5 Safari/537.36" version="24.7.17">
  <diagram name="Page-1" id="pBuR_KWVbQw3b5ImkYgj">
    <mxGraphModel dx="794" dy="512" grid="1" gridSize="10" guides="1" tooltips="1" connect="1" arrows="1" fold="1" page="1" pageScale="1" pageWidth="850" pageHeight="1100" math="0" shadow="0">
      <root>
        <mxCell id="0" />
        <mxCell id="1" parent="0" />
        <mxCell id="irxakl2fvqJIJ8T-Fpj2-1" value="" style="rounded=1;whiteSpace=wrap;html=1;fillColor=none;" vertex="1" parent="1">
          <mxGeometry x="100" y="150" width="690" height="320" as="geometry" />
        </mxCell>
        <mxCell id="irxakl2fvqJIJ8T-Fpj2-2" value="graphql-js@version" style="rounded=1;whiteSpace=wrap;html=1;" vertex="1" parent="1">
          <mxGeometry x="287" y="180" width="120" height="60" as="geometry" />
        </mxCell>
        <mxCell id="irxakl2fvqJIJ8T-Fpj2-3" value="GraphQL Implementation" style="rounded=1;whiteSpace=wrap;html=1;" vertex="1" parent="1">
          <mxGeometry x="130" y="180" width="120" height="60" as="geometry" />
        </mxCell>
        <mxCell id="irxakl2fvqJIJ8T-Fpj2-4" value="compatibility-unit-tests" style="rounded=1;whiteSpace=wrap;html=1;" vertex="1" parent="1">
          <mxGeometry x="370" y="400" width="190" height="60" as="geometry" />
        </mxCell>
        <mxCell id="irxakl2fvqJIJ8T-Fpj2-5" value="" style="endArrow=classic;html=1;rounded=0;entryX=0.25;entryY=1;entryDx=0;entryDy=0;exitX=0.75;exitY=0;exitDx=0;exitDy=0;" edge="1" parent="1" source="irxakl2fvqJIJ8T-Fpj2-7" target="irxakl2fvqJIJ8T-Fpj2-2">
          <mxGeometry width="50" height="50" relative="1" as="geometry">
            <mxPoint x="350" y="310" as="sourcePoint" />
            <mxPoint x="400" y="260" as="targetPoint" />
          </mxGeometry>
        </mxCell>
        <mxCell id="irxakl2fvqJIJ8T-Fpj2-6" value="" style="endArrow=classic;html=1;rounded=0;entryX=0.75;entryY=1;entryDx=0;entryDy=0;exitX=0.25;exitY=0;exitDx=0;exitDy=0;" edge="1" parent="1" source="irxakl2fvqJIJ8T-Fpj2-7" target="irxakl2fvqJIJ8T-Fpj2-3">
          <mxGeometry width="50" height="50" relative="1" as="geometry">
            <mxPoint x="202" y="380" as="sourcePoint" />
            <mxPoint x="250" y="290" as="targetPoint" />
          </mxGeometry>
        </mxCell>
        <mxCell id="irxakl2fvqJIJ8T-Fpj2-7" value="Puller" style="rounded=1;whiteSpace=wrap;html=1;" vertex="1" parent="1">
          <mxGeometry x="230" y="290" width="80" height="60" as="geometry" />
        </mxCell>
        <mxCell id="irxakl2fvqJIJ8T-Fpj2-8" value="Extractor" style="rounded=1;whiteSpace=wrap;html=1;" vertex="1" parent="1">
          <mxGeometry x="382" y="290" width="80" height="60" as="geometry" />
        </mxCell>
        <mxCell id="irxakl2fvqJIJ8T-Fpj2-11" value="Validator" style="rounded=1;whiteSpace=wrap;html=1;" vertex="1" parent="1">
          <mxGeometry x="537" y="290" width="80" height="60" as="geometry" />
        </mxCell>
        <mxCell id="irxakl2fvqJIJ8T-Fpj2-12" value="Result" style="rounded=1;whiteSpace=wrap;html=1;" vertex="1" parent="1">
          <mxGeometry x="680" y="290" width="80" height="60" as="geometry" />
        </mxCell>
        <mxCell id="irxakl2fvqJIJ8T-Fpj2-13" value="" style="endArrow=classic;html=1;rounded=0;entryX=1;entryY=0.5;entryDx=0;entryDy=0;exitX=0;exitY=0.5;exitDx=0;exitDy=0;" edge="1" parent="1" source="irxakl2fvqJIJ8T-Fpj2-8" target="irxakl2fvqJIJ8T-Fpj2-7">
          <mxGeometry width="50" height="50" relative="1" as="geometry">
            <mxPoint x="490" y="360" as="sourcePoint" />
            <mxPoint x="540" y="310" as="targetPoint" />
          </mxGeometry>
        </mxCell>
        <mxCell id="irxakl2fvqJIJ8T-Fpj2-14" value="" style="endArrow=classic;html=1;rounded=0;entryX=1;entryY=0.5;entryDx=0;entryDy=0;exitX=0;exitY=0.5;exitDx=0;exitDy=0;" edge="1" parent="1" source="irxakl2fvqJIJ8T-Fpj2-11" target="irxakl2fvqJIJ8T-Fpj2-8">
          <mxGeometry width="50" height="50" relative="1" as="geometry">
            <mxPoint x="540" y="320" as="sourcePoint" />
            <mxPoint x="470" y="319.5" as="targetPoint" />
          </mxGeometry>
        </mxCell>
        <mxCell id="irxakl2fvqJIJ8T-Fpj2-15" value="" style="endArrow=classic;html=1;rounded=0;entryX=1;entryY=0.5;entryDx=0;entryDy=0;exitX=0;exitY=0.5;exitDx=0;exitDy=0;" edge="1" parent="1" source="irxakl2fvqJIJ8T-Fpj2-12" target="irxakl2fvqJIJ8T-Fpj2-11">
          <mxGeometry width="50" height="50" relative="1" as="geometry">
            <mxPoint x="565" y="330" as="sourcePoint" />
            <mxPoint x="480" y="330" as="targetPoint" />
          </mxGeometry>
        </mxCell>
        <mxCell id="irxakl2fvqJIJ8T-Fpj2-16" value="" style="endArrow=classic;html=1;rounded=0;entryX=0.5;entryY=1;entryDx=0;entryDy=0;exitX=0.5;exitY=0;exitDx=0;exitDy=0;" edge="1" parent="1" source="irxakl2fvqJIJ8T-Fpj2-4" target="irxakl2fvqJIJ8T-Fpj2-7">
          <mxGeometry width="50" height="50" relative="1" as="geometry">
            <mxPoint x="420" y="300" as="sourcePoint" />
            <mxPoint x="470" y="250" as="targetPoint" />
          </mxGeometry>
        </mxCell>
        <mxCell id="irxakl2fvqJIJ8T-Fpj2-19" value="" style="endArrow=classic;html=1;rounded=0;entryX=0.5;entryY=1;entryDx=0;entryDy=0;exitX=0.5;exitY=0;exitDx=0;exitDy=0;" edge="1" parent="1" source="irxakl2fvqJIJ8T-Fpj2-4" target="irxakl2fvqJIJ8T-Fpj2-8">
          <mxGeometry width="50" height="50" relative="1" as="geometry">
            <mxPoint x="475" y="410" as="sourcePoint" />
            <mxPoint x="280" y="360" as="targetPoint" />
          </mxGeometry>
        </mxCell>
        <mxCell id="irxakl2fvqJIJ8T-Fpj2-21" value="" style="endArrow=classic;html=1;rounded=0;entryX=0.5;entryY=1;entryDx=0;entryDy=0;exitX=0.5;exitY=0;exitDx=0;exitDy=0;" edge="1" parent="1" source="irxakl2fvqJIJ8T-Fpj2-4" target="irxakl2fvqJIJ8T-Fpj2-11">
          <mxGeometry width="50" height="50" relative="1" as="geometry">
            <mxPoint x="380" y="360" as="sourcePoint" />
            <mxPoint x="430" y="310" as="targetPoint" />
          </mxGeometry>
        </mxCell>
        <mxCell id="irxakl2fvqJIJ8T-Fpj2-22" value="" style="endArrow=classic;html=1;rounded=0;entryX=0.5;entryY=1;entryDx=0;entryDy=0;exitX=0.5;exitY=0;exitDx=0;exitDy=0;" edge="1" parent="1" source="irxakl2fvqJIJ8T-Fpj2-4" target="irxakl2fvqJIJ8T-Fpj2-12">
          <mxGeometry width="50" height="50" relative="1" as="geometry">
            <mxPoint x="475" y="410" as="sourcePoint" />
            <mxPoint x="587" y="360" as="targetPoint" />
          </mxGeometry>
        </mxCell>
      </root>
    </mxGraphModel>
  </diagram>
</mxfile>
